<svg width="608" height="446" viewBox="0 0 608 446" fill="none" xmlns="http://www.w3.org/2000/svg">
<path fill-rule="evenodd" clip-rule="evenodd" d="M604.658 266.652V266.652L604.271 269.93L603.863 273.199L603.432 276.46L602.98 279.712L602.505 282.955L602.006 286.191L601.483 289.418L600.934 292.637L600.357 295.847L599.751 299.048L599.115 302.239L598.446 305.421L597.742 308.592L597.001 311.752L596.221 314.9L595.399 318.035L594.533 321.156L593.622 324.261L592.661 327.35L591.649 330.42L590.584 333.47L589.463 336.499L588.284 339.503L587.045 342.483L585.743 345.434L584.376 348.356L582.944 351.245L581.443 354.1L579.873 356.919L578.232 359.697L576.519 362.434L574.733 365.127L572.873 367.772L570.939 370.368L568.93 372.912L566.847 375.401L564.689 377.834L562.458 380.207L560.154 382.518L557.777 384.766L555.33 386.948L552.814 389.063L550.23 391.108L547.581 393.082L544.87 394.984L542.098 396.812L539.269 398.566L536.385 400.244L533.451 401.847L530.468 403.374L527.441 404.824L524.372 406.197L521.266 407.494L518.125 408.715L514.955 409.86L511.757 410.93L508.536 411.927L505.296 412.851L502.041 413.703L498.773 414.485L495.498 415.199L492.218 415.846L488.938 416.43L485.66 416.95L482.389 417.412L479.127 417.816L475.879 418.165L472.647 418.462L469.435 418.711L466.245 418.914L463.08 419.075L459.944 419.196L456.838 419.28L453.765 419.333L450.727 419.356L447.726 419.353L444.764 419.329L441.843 419.285L438.964 419.227L436.129 419.157L433.338 419.079L430.592 418.997L427.893 418.914L425.24 418.832L422.634 418.757L420.075 418.69L417.562 418.635L415.097 418.595L412.677 418.572L410.303 418.57L407.974 418.591L405.688 418.637L403.444 418.711L401.242 418.814L399.079 418.949L396.955 419.116L394.866 419.316L392.811 419.552L390.789 419.822L388.796 420.128L386.831 420.47L384.892 420.848L382.976 421.261L381.081 421.709L379.205 422.191L377.345 422.707L375.499 423.254L373.664 423.832L371.839 424.439L370.021 425.073L368.209 425.732L366.399 426.415L364.591 427.118L362.782 427.84L360.97 428.579L359.155 429.33L357.334 430.093L355.505 430.864L353.669 431.641L351.823 432.42L349.966 433.199L348.098 433.975L346.217 434.746L344.324 435.508L342.417 436.259L340.497 436.996L338.563 437.716L336.614 438.418L334.652 439.099L332.675 439.756L330.685 440.388L328.681 440.992L326.664 441.567L324.635 442.112L322.593 442.624L320.54 443.103L318.476 443.548L316.402 443.958L314.318 444.332L312.225 444.669L310.124 444.969L308.016 445.23L305.902 445.452L303.781 445.636L301.656 445.779L299.527 445.882L297.395 445.945L295.261 445.968L293.125 445.949L290.989 445.89L288.853 445.79L286.718 445.649L284.585 445.468L282.455 445.246L280.328 444.984L278.206 444.682L276.088 444.341L273.977 443.96L271.871 443.541L269.773 443.083L267.683 442.588L265.601 442.056L263.528 441.488L261.465 440.884L259.411 440.245L257.368 439.571L255.335 438.865L253.314 438.126L251.304 437.355L249.305 436.553L247.319 435.721L245.345 434.86L243.383 433.971L241.434 433.055L239.496 432.112L237.572 431.144L235.659 430.152L233.759 429.136L231.871 428.098L229.994 427.038L228.13 425.958L226.276 424.859L224.433 423.741L222.601 422.606L220.779 421.454L218.965 420.287L217.161 419.106L215.364 417.912L213.573 416.706L211.789 415.489L210.009 414.262L208.234 413.026L206.461 411.783L204.689 410.532L202.918 409.276L201.146 408.014L199.371 406.749L197.593 405.479L195.81 404.207L194.02 402.932L192.222 401.656L190.414 400.378L188.596 399.1L186.765 397.82L184.92 396.54L183.06 395.26L181.182 393.98L179.286 392.699L177.37 391.417L175.433 390.135L173.473 388.851L171.489 387.566L169.48 386.278L167.444 384.987L165.38 383.693L163.288 382.395L161.166 381.09L159.014 379.78L156.83 378.461L154.614 377.134L152.366 375.797L150.084 374.448L147.77 373.086L145.422 371.71L143.041 370.317L140.627 368.907L138.18 367.477L135.7 366.025L133.189 364.551L130.646 363.052L128.074 361.526L125.471 359.972L122.841 358.388L120.183 356.771L117.499 355.121L114.791 353.436L112.059 351.714L109.307 349.952L106.534 348.151L103.744 346.307L100.938 344.42L98.1186 342.487L95.2875 340.509L92.4473 338.482L89.6001 336.406L86.7487 334.28L83.8955 332.102L81.0431 329.872L78.1943 327.588L75.3519 325.25L72.5188 322.856L69.6978 320.407L66.892 317.901L64.1042 315.339L61.3377 312.719L58.5955 310.041L55.8806 307.306L53.1963 304.514L50.5456 301.663L47.9317 298.756L45.3577 295.791L42.8268 292.77L40.342 289.692L37.9064 286.56L35.5231 283.372L33.195 280.131L30.9251 276.838L28.7162 273.492L26.5713 270.097L24.493 266.652L22.484 263.16L20.5469 259.622L18.6842 256.04L16.8983 252.414L15.1917 248.748L13.5665 245.043L12.0249 241.301L10.5688 237.524L9.20033 233.714L7.92114 229.873L6.73294 226.003L5.63727 222.107L4.63554 218.187L3.72903 214.246L2.91888 210.285L2.20612 206.308L1.59161 202.316L1.07609 198.312L0.660172 194.298L0.344323 190.278L0.12889 186.253L0.0140849 182.226L0 178.199L0.0866049 174.175L0.273753 170.156L0.561187 166.145L0.948542 162.144L1.43535 158.155L2.02106 154.18L2.70503 150.223L3.48651 146.284L4.36471 142.367L5.33876 138.473L6.40772 134.605L7.57062 130.765L8.82642 126.954L10.1741 123.176L11.6124 119.431L13.1404 115.722L14.7569 112.051L16.4607 108.42L18.2507 104.831L20.1258 101.285L22.0848 97.785L24.1266 94.3326L26.2502 90.9299L28.4543 87.5787L30.7377 84.2809L33.0992 81.0383L35.5371 77.8527L38.0501 74.7257L40.6365 71.6589L43.2946 68.6539L46.0226 65.7121L48.8186 62.8347L51.6806 60.0231L54.6066 57.2783L57.5945 54.6014L60.6422 51.9934L63.7474 49.455L66.9079 46.987L70.1212 44.5899L73.3851 42.2644L76.6971 40.0107L80.0548 37.8292L83.4556 35.7199L86.8971 33.6829L90.3768 31.7182L93.8922 29.8255L97.4406 28.0045L101.02 26.2549L104.627 24.576L108.259 22.9673L111.915 21.4279L115.591 19.9571L119.286 18.5538L122.996 17.2171L126.72 15.9457L130.454 14.7384L134.198 13.5939L137.949 12.5108L141.704 11.4877L145.461 10.5228L149.219 9.61473L152.976 8.76169L156.729 7.96196L160.478 7.21378L164.22 6.51532L167.954 5.86474L171.678 5.26013L175.392 4.69961L179.093 4.18127L182.781 3.7032L186.454 3.26351L190.112 2.86035L193.754 2.49187L197.378 2.15628L200.985 1.85182L204.574 1.57678L208.144 1.3295L211.695 1.10837L215.227 0.911844L218.739 0.738446L222.232 0.586758L225.705 0.455432L229.159 0.343193L232.593 0.248835L236.008 0.171229L239.404 0.109317L242.781 0.0621141L246.14 0.0287089L249.481 0.00826122L252.804 0L256.11 0.00322161L259.4 0.0172867L262.673 0.0416172L265.931 0.075692L269.173 0.119043L272.402 0.171252L275.616 0.231941L278.817 0.300774L282.006 0.377443L285.183 0.461669L288.348 0.553192L291.502 0.651764L294.647 0.757144L297.781 0.869091L300.907 0.987355L304.025 1.11167L307.135 1.24175L310.238 1.37728L313.335 1.51791L316.426 1.66323L319.512 1.81281L322.593 1.96613L325.671 2.12263L328.747 2.28178L331.82 2.44313L334.891 2.6063L337.963 2.771L341.034 2.93706L344.107 3.10437L347.181 3.27292L350.258 3.44281L353.338 3.61421L356.423 3.78741L359.512 3.96278L362.607 4.14079L365.708 4.32201L368.817 4.50709L371.932 4.69677L375.057 4.8919L378.189 5.0934L381.331 5.30229L384.483 5.51964L387.644 5.74664L390.816 5.98453L393.998 6.23463L397.191 6.49832L400.395 6.77705L403.609 7.07232L406.834 7.3857L410.07 7.71879L413.315 8.07324L416.571 8.45073L419.836 8.85297L423.11 9.28172L426.393 9.73871L429.684 10.2257L432.981 10.7445L436.285 11.2969L439.594 11.8847L442.907 12.5095L446.223 13.1731L449.542 13.8773L452.861 14.6236L456.179 15.4138L459.496 16.2494L462.809 17.132L466.116 18.063L469.418 19.0438L472.711 20.0759L475.994 21.1603L479.265 22.2982L482.523 23.4906L485.766 24.7383L488.993 26.0421L492.201 27.4027L495.388 28.8205L498.554 30.2959L501.697 31.8293L504.814 33.4209L507.904 35.0708L510.966 36.779L513.998 38.5454L516.998 40.3697L519.965 42.2519L522.898 44.1913L525.795 46.1877L528.654 48.2404L531.475 50.3489L534.256 52.5125L536.996 54.7304L539.693 57.0019L542.346 59.3259L544.956 61.7017L547.519 64.1281L550.036 66.6043L552.506 69.129L554.927 71.7012L557.299 74.3198L559.621 76.9835L561.893 79.6911L564.113 82.4415L566.281 85.2334L568.397 88.0655L570.46 90.9366L572.469 93.8454L574.424 96.7908L576.324 99.7713L578.169 102.786L579.958 105.833L581.691 108.912L583.367 112.021L584.987 115.16L586.548 118.326L588.052 121.519L589.496 124.737L590.882 127.98L592.209 131.246L593.477 134.534L594.685 137.842L595.834 141.168L596.924 144.512L597.956 147.872L598.93 151.247L599.845 154.635L600.704 158.035L601.506 161.446L602.252 164.865L602.944 168.292L603.582 171.725L604.167 175.164L604.7 178.606L605.182 182.051L605.615 185.497L606 188.944L606.338 192.39L606.631 195.834L606.879 199.275L607.085 202.713L607.25 206.147L607.375 209.575L607.461 212.998L607.51 216.414L607.524 219.823L607.503 223.225L607.45 226.618L607.365 230.004L607.25 233.381L607.106 236.749L606.934 240.108L606.735 243.458L606.509 246.799L606.259 250.131L605.985 253.453L605.687 256.767L605.366 260.071L605.023 263.366L604.658 266.652" fill="url(#paint0_linear_1_30)"/>
<defs>
<linearGradient id="paint0_linear_1_30" x1="-304.487" y1="-8.90766" x2="-291.441" y2="-454.848" gradientUnits="userSpaceOnUse">
<stop stop-color="#F9D049"/>
<stop offset="1" stop-color="#B538E6"/>
</linearGradient>
</defs>
</svg>
