<svg width="388" height="495" viewBox="0 0 388 495" fill="none" xmlns="http://www.w3.org/2000/svg">
<path fill-rule="evenodd" clip-rule="evenodd" d="M387.654 225.871V225.871L387.674 229.241L387.39 232.604L386.804 235.948L385.922 239.261L384.748 242.533L383.294 245.752L381.569 248.908L379.586 251.992L377.362 254.996L374.913 257.912L372.257 260.734L369.415 263.458L366.408 266.079L363.255 268.596L359.977 271.006L356.593 273.309L353.122 275.506L349.581 277.598L345.987 279.585L342.356 281.472L338.702 283.26L335.038 284.953L331.375 286.554L327.724 288.068L324.092 289.497L320.488 290.845L316.917 292.117L313.388 293.316L309.906 294.447L306.477 295.515L303.109 296.526L299.806 297.485L296.575 298.398L293.419 299.271L290.344 300.11L287.354 300.922L284.453 301.712L281.643 302.488L278.927 303.256L276.308 304.022L273.786 304.794L271.365 305.578L269.043 306.38L266.821 307.207L264.7 308.065L262.679 308.961L260.756 309.9L258.93 310.889L257.2 311.933L255.563 313.039L254.016 314.21L252.556 315.453L251.18 316.773L249.884 318.173L248.664 319.657L247.515 321.231L246.433 322.896L245.411 324.656L244.445 326.513L243.529 328.469L242.656 330.526L241.821 332.685L241.018 334.946L240.238 337.309L239.477 339.775L238.727 342.34L237.981 345.006L237.232 347.768L236.474 350.625L235.699 353.574L234.902 356.611L234.076 359.732L233.214 362.933L232.31 366.211L231.358 369.558L230.353 372.971L229.288 376.444L228.159 379.97L226.962 383.544L225.69 387.159L224.341 390.808L222.909 394.484L221.392 398.179L219.785 401.887L218.087 405.6L216.296 409.313L214.41 413.021L212.428 416.719L210.349 420.404L208.173 424.07L205.898 427.714L203.526 431.331L201.055 434.915L198.486 438.461L195.818 441.962L193.052 445.41L190.187 448.797L187.226 452.116L184.169 455.359L181.018 458.518L177.776 461.588L174.443 464.56L171.024 467.428L167.521 470.186L163.938 472.827L160.278 475.344L156.546 477.731L152.745 479.982L148.88 482.089L144.957 484.047L140.98 485.849L136.956 487.489L132.889 488.962L128.787 490.261L124.656 491.381L120.502 492.317L116.334 493.066L112.157 493.623L107.979 493.985L103.808 494.148L99.6511 494.112L95.5161 493.874L91.4105 493.435L87.3417 492.793L83.3172 491.95L79.3442 490.906L75.4297 489.665L71.5807 488.229L67.8037 486.602L64.1049 484.786L60.4904 482.788L56.9658 480.611L53.5363 478.263L50.2068 475.748L46.9818 473.074L43.8654 470.246L40.8614 467.272L37.973 464.16L35.2033 460.916L32.5548 457.548L30.0297 454.064L27.6299 450.471L25.357 446.776L23.2119 442.989L21.1957 439.116L19.3086 435.164L17.5506 431.142L15.9215 427.058L14.4202 422.919L13.0454 418.733L11.7948 414.508L10.6662 410.253L9.65643 405.976L8.76214 401.685L7.97983 397.386L7.30619 393.087L6.73805 388.793L6.27226 384.51L5.90566 380.243L5.63493 375.997L5.45647 371.777L5.36632 367.587L5.36003 363.432L5.43252 359.316L5.57801 355.246L5.78986 351.226L6.0609 347.261L6.38385 343.355L6.75133 339.514L7.15594 335.74L7.59021 332.036L8.04663 328.406L8.51777 324.852L8.99629 321.375L9.47507 317.976L9.94727 314.656L10.4063 311.415L10.8461 308.253L11.2607 305.168L11.6449 302.159L11.9938 299.224L12.303 296.362L12.5687 293.568L12.7876 290.841L12.9568 288.176L13.0742 285.571L13.138 283.021L13.1473 280.522L13.1014 278.07L13.0005 275.662L12.8449 273.292L12.636 270.956L12.3752 268.65L12.0647 266.37L11.7071 264.111L11.3055 261.869L10.8633 259.641L10.3845 257.422L9.87312 255.209L9.33382 252.999L8.77136 250.788L8.19073 248.575L7.5971 246.355L6.99571 244.128L6.39189 241.891L5.79093 239.643L5.19806 237.382L4.61837 235.108L4.05677 232.82L3.51792 230.518L3.00617 228.201L2.52553 225.871L2.07961 223.526L1.67158 221.169L1.30418 218.799L0.97964 216.417L0.699734 214.025L0.465753 211.624L0.278539 209.214L0.138523 206.796L0.0457699 204.373L0 201.944L0.00059749 199.51L0.0466492 197.073L0.136763 194.633L0.268283 192.19L0.437154 189.744L0.638191 187.294L0.865352 184.84L1.11201 182.378L1.37121 179.908L1.63594 177.426L1.89932 174.929L2.15489 172.413L2.39676 169.874L2.61984 167.309L2.8199 164.713L2.99333 162.082L3.13705 159.412L3.24853 156.699L3.32591 153.937L3.36784 151.123L3.37365 148.253L3.34342 145.322L3.27803 142.326L3.17929 139.262L3.04992 136.127L2.89355 132.919L2.71475 129.636L2.51895 126.277L2.31242 122.842L2.10222 119.331L1.89605 115.746L1.70227 112.088L1.52972 108.362L1.38765 104.572L1.28561 100.722L1.23333 96.8181L1.24063 92.8678L1.31727 88.8782L1.4729 84.8578L1.71688 80.8158L2.05823 76.7617L2.50552 72.7059L3.06678 68.6591L3.7494 64.6324L4.56011 60.6374L5.50483 56.6856L6.58871 52.7888L7.81602 48.9589L9.19014 45.2074L10.7135 41.5461L12.3878 37.9862L14.2134 34.5385L16.1901 31.2136L18.3167 28.0215L20.591 24.9716L23.01 22.0726L25.57 19.3325L28.2663 16.7587L31.0937 14.3576L34.0461 12.1346L37.117 10.0944L40.2991 8.24082L43.5849 6.5764L46.9661 5.1028L50.4343 3.82059L53.9806 2.72919L57.596 1.82684L61.2711 1.11052L64.9964 0.575897L68.7625 0.217305L72.5599 0.0279398L76.3794 0L80.212 0.124763L84.0492 0.392473L87.8827 0.792077L91.7045 1.31132L95.5074 1.93694L99.2845 2.65483L103.03 3.45033L106.739 4.30841L110.406 5.21393L114.029 6.15195L117.606 7.10794L121.134 8.06813L124.614 9.01972L128.045 9.95102L131.43 10.851L134.77 11.7096L138.067 12.5172L141.325 13.2654L144.547 13.9467L147.738 14.5544L150.901 15.0831L154.042 15.5287L157.166 15.8885L160.278 16.161L163.383 16.3462L166.487 16.4457L169.594 16.4624L172.709 16.4006L175.837 16.266L178.982 16.0657L182.147 15.808L185.335 15.5021L188.549 15.1584L191.789 14.7883L195.058 14.4036L198.354 14.0171L201.676 13.6419L205.025 13.2913L208.395 12.9791L211.786 12.7187L215.191 12.5238L218.607 12.4074L222.028 12.3825L225.447 12.4611L228.858 12.655L232.254 12.9748L235.625 13.4305L238.965 14.031L242.265 14.7841L245.516 15.6966L248.71 16.7741L251.837 18.0208L254.888 19.44L257.856 21.0336L260.732 22.8023L263.509 24.7456L266.177 26.8618L268.731 29.1481L271.164 31.6005L273.47 34.2141L275.644 36.983L277.681 39.9002L279.578 42.958L281.331 46.1477L282.939 49.4599L284.4 52.8846L285.715 56.4107L286.885 60.0268L287.912 63.7208L288.8 67.4801L289.552 71.2922L290.174 75.1443L290.673 79.0234L291.056 82.9158L291.334 86.8074L291.516 90.6841L291.617 94.532L291.649 98.3373L291.626 102.087L291.564 105.768L291.479 109.37L291.388 112.88L291.309 116.29L291.257 119.592L291.251 122.777L291.309 125.841L291.446 128.778L291.68 131.586L292.027 134.264L292.501 136.812L293.116 139.231L293.886 141.524L294.821 143.697L295.932 145.753L297.227 147.703L298.711 149.553L300.389 151.313L302.262 152.995L304.331 154.611L306.592 156.171L309.041 157.691L311.671 159.182L314.473 160.659L317.435 162.134L320.546 163.622L323.789 165.135L327.149 166.686L330.606 168.287L334.142 169.948L337.735 171.68L341.364 173.493L345.006 175.394L348.638 177.389L352.236 179.485L355.776 181.685L359.235 183.992L362.588 186.407L365.814 188.931L368.89 191.561L371.793 194.295L374.505 197.129L377.006 200.056L379.278 203.072L381.305 206.167L383.073 209.333L384.569 212.56L385.782 215.839L386.705 219.158L387.331 222.506L387.654 225.871" fill="url(#paint0_linear_1_28)"/>
<defs>
<linearGradient id="paint0_linear_1_28" x1="-368.733" y1="-646.891" x2="-730.415" y2="-440.729" gradientUnits="userSpaceOnUse">
<stop offset="0.0728054" stop-color="#F9E490"/>
<stop offset="1" stop-color="#ED91D6"/>
</linearGradient>
</defs>
</svg>
