<svg width="565" height="266" viewBox="0 0 565 266" fill="none" xmlns="http://www.w3.org/2000/svg">
<path d="M253.599 129H267.599C268.933 132.5 268.699 141.8 257.099 151C244.299 158.6 250.433 164.833 255.099 167H268.599H271.5C272.667 167 275.699 163 278.099 153C281.099 140.5 274.099 134 273.099 132C273.599 130.5 273.099 128.5 278.5 128.5C284.5 128.5 286.5 130.5 288 134.5C289 137.5 292.099 153.5 296.599 164C300.199 172.4 305.433 168.5 307.599 165.5V153.5C307.599 153.833 307.599 150 307 145.5C306.41 141.067 297.266 136.833 293.099 133.5V129C296.433 128.5 303.484 128.569 306.5 129C310 129.5 313.766 130.833 315.599 131V172.5C315.599 183.3 308.599 189.333 305.099 191H298.099C296.099 191 289.599 186 287.099 179.5C286.138 177 283.599 166 283.099 160H282.099C282.099 160 280.433 175.667 279.599 178C278.433 182.5 273.399 191.4 262.599 191C250.199 191 245.099 179.667 244.099 174C244.099 167.667 244 147.9 244 139.5C245 134 245.199 133.5 246.099 132C247 130.5 249.333 129.167 250.5 129H253.599Z" fill="#140A44"/>
<path d="M184 69.5V118C193.6 118 198.333 111.667 199.5 108.5V58C191.1 56 185.667 64.8333 184 69.5Z" fill="#140A44"/>
<path d="M228 118.5V104.5H210C203.6 104.5 200.667 113.833 200 118.5H228Z" fill="#140A44" stroke="#140A44"/>
<path d="M86.0404 119.145C81.6885 119.153 77.6556 118.648 73.9418 117.63C70.228 116.613 66.8657 115.307 63.8549 113.712C60.8441 112.117 58.1531 110.426 55.782 108.638L64.3976 94.703C67.0899 97.1943 69.6853 99.1098 72.1837 100.449C74.682 101.789 77.2756 102.712 79.9645 103.22C82.7174 103.727 85.6939 103.978 88.8939 103.972C91.6459 103.967 93.8532 103.611 95.516 102.904C97.1787 102.134 98.009 101.172 98.0069 100.02C98.0053 99.0601 97.204 98.3255 95.6031 97.8163C94.0021 97.2431 91.9532 96.7667 89.4566 96.3871C86.9598 95.9435 84.3348 95.4041 81.5817 94.7689C77.6759 93.7517 74.0259 92.5741 70.6315 91.2361C67.2372 89.898 64.482 88.0789 62.3659 85.7786C60.3139 83.4782 59.2845 80.408 59.2778 76.568C59.2724 73.496 60.0037 70.8067 61.4717 68.5001C62.9395 66.1295 64.8881 64.1741 67.3174 62.6338C69.8106 61.0295 72.6245 59.8405 75.7591 59.067C78.8938 58.2936 82.1251 57.9039 85.4531 57.8981C91.2131 57.888 96.1743 58.5833 100.337 59.984C104.563 61.3206 108.598 63.1055 112.442 65.3388L103.729 78.6021C101.807 77.2614 99.5971 76.1133 97.0994 75.1577C94.6656 74.1379 92.2002 73.3743 89.7033 72.8666C87.2703 72.2949 84.9978 72.0109 82.8858 72.0146C80.5818 72.0186 78.7585 72.3738 77.4157 73.0802C76.1369 73.7864 75.4987 74.7795 75.5009 76.0595C75.5023 76.8275 76.3036 77.5621 77.9048 78.2633C79.5699 78.9004 82.7074 79.7589 87.3173 80.8388C90.0704 81.474 92.9836 82.1409 96.0568 82.8395C99.13 83.4741 102.012 84.3971 104.702 85.6084C107.456 86.7555 109.667 88.4477 111.335 90.6847C113.066 92.8577 113.936 95.7682 113.942 99.4162C113.953 105.56 111.497 110.364 106.575 113.829C101.653 117.358 94.8084 119.13 86.0404 119.145ZM149.891 118.937C144.771 118.946 140.289 118.122 136.446 116.465C132.667 114.807 129.527 112.541 127.026 109.665C124.525 106.726 122.663 103.369 121.441 99.5951C120.218 95.8212 119.603 91.8543 119.596 87.6943C119.588 83.4703 120.318 79.565 121.783 75.9784C123.313 72.3277 125.387 69.1561 128.007 66.4635C130.69 63.7708 133.822 61.6853 137.404 60.207C140.985 58.6647 144.888 57.8899 149.112 57.8825C153.528 57.8748 157.625 58.6356 161.404 60.165C165.182 61.6943 168.482 63.8326 171.303 66.5796C174.124 69.3267 176.305 72.5549 177.848 76.2642C179.454 79.9733 180.262 84.0039 180.269 88.3559C180.286 98.0199 177.643 105.545 172.341 110.93C167.038 116.251 159.555 118.92 149.891 118.937ZM149.767 103.385C154.439 103.377 157.989 102.059 160.417 99.4307C162.908 96.8024 164.149 93.0242 164.141 88.0962C164.133 83.6802 162.783 80.1306 160.09 77.4473C157.397 74.764 153.875 73.4262 149.523 73.4338C146.899 73.4384 144.5 74.1466 142.327 75.5584C140.153 76.9062 138.396 78.7333 137.056 81.0397C135.78 83.2819 135.145 85.779 135.149 88.531C135.154 90.963 135.638 93.3302 136.602 95.6325C137.63 97.9347 139.233 99.8199 141.412 101.288C143.59 102.692 146.375 103.391 149.767 103.385Z" fill="#140A44"/>
<path d="M253.91 119.46C249.43 119.46 245.72 118.737 242.78 117.29C239.84 115.89 237.483 113.953 235.71 111.48C233.983 108.96 232.677 106.067 231.79 102.8C230.95 99.5333 230.39 96.0333 230.11 92.3C229.877 88.5667 229.76 84.7867 229.76 80.96C229.76 76.62 229.9 72.3967 230.18 68.29C230.46 64.1367 230.763 60.66 231.09 57.86L243.97 58.63C243.503 62.0367 243.13 65.0933 242.85 67.8C242.617 70.46 242.453 72.98 242.36 75.36C242.267 77.74 242.22 80.19 242.22 82.71C242.22 84.67 242.243 86.7933 242.29 89.08C242.383 91.32 242.593 93.56 242.92 95.8C243.293 97.9933 243.853 100 244.6 101.82C245.393 103.593 246.49 105.04 247.89 106.16C249.337 107.233 251.18 107.77 253.42 107.77C255.847 107.77 257.807 107.233 259.3 106.16C260.84 105.04 262.03 103.57 262.87 101.75C263.71 99.8833 264.317 97.83 264.69 95.59C265.063 93.3033 265.273 90.9933 265.32 88.66C265.413 86.28 265.46 84.04 265.46 81.94C265.46 77.9733 265.343 74.1233 265.11 70.39C264.877 66.6567 264.573 62.69 264.2 58.49L277.08 57.51C277.453 61.99 277.733 66.0967 277.92 69.83C278.107 73.5167 278.2 76.9233 278.2 80.05C278.2 84.2967 278.037 88.38 277.71 92.3C277.43 96.22 276.823 99.8367 275.89 103.15C274.957 106.417 273.603 109.287 271.83 111.76C270.057 114.187 267.7 116.077 264.76 117.43C261.867 118.783 258.25 119.46 253.91 119.46ZM307.469 119.18C307.142 115.12 306.909 111.177 306.769 107.35C306.675 103.523 306.629 99.9067 306.629 96.5C306.629 90.8533 306.745 85.79 306.979 81.31C307.212 76.7833 307.445 72.8867 307.679 69.62C303.665 69.8533 299.769 70.1567 295.989 70.53C292.209 70.9033 288.709 71.3933 285.489 72L285.629 60.31C291.089 59.33 296.689 58.63 302.429 58.21C308.169 57.7433 313.909 57.51 319.649 57.51C323.755 57.51 327.675 57.6033 331.409 57.79C335.189 57.9767 338.805 58.2567 342.259 58.63L342.189 70.74C338.922 70.2267 335.375 69.8767 331.549 69.69C327.769 69.4567 323.895 69.34 319.929 69.34C319.695 72.5133 319.485 76.06 319.299 79.98C319.112 83.8533 319.019 88.0067 319.019 92.44C319.019 96.4067 319.112 100.583 319.299 104.97C319.532 109.357 319.812 113.977 320.139 118.83L307.469 119.18ZM349.666 118.83C349.292 116.403 348.966 113.463 348.686 110.01C348.452 106.557 348.266 102.8 348.126 98.74C348.032 94.68 347.986 90.55 347.986 86.35C347.986 81.0767 348.079 75.9433 348.266 70.95C348.452 65.9567 348.732 61.57 349.106 57.79L361.986 58C361.472 61.3133 361.076 65.21 360.796 69.69C360.562 74.17 360.446 79.2567 360.446 84.95C360.446 90.7367 360.539 96.5467 360.726 102.38C360.959 108.213 361.216 113.557 361.496 118.41L349.666 118.83ZM397.968 118.69C393.582 118.69 389.592 117.873 385.998 116.24C382.405 114.653 379.302 112.437 376.688 109.59C374.075 106.743 372.068 103.5 370.668 99.86C369.268 96.22 368.568 92.37 368.568 88.31C368.568 84.5767 369.128 80.9133 370.248 77.32C371.368 73.68 373.072 70.39 375.358 67.45C377.645 64.4633 380.538 62.0833 384.038 60.31C387.585 58.5367 391.762 57.65 396.568 57.65C401.562 57.65 405.902 58.5133 409.588 60.24C413.275 61.92 416.308 64.1833 418.688 67.03C421.068 69.8767 422.842 73.0967 424.008 76.69C425.175 80.2833 425.758 83.97 425.758 87.75C425.758 92.2767 425.082 96.43 423.728 100.21C422.375 103.99 420.462 107.28 417.988 110.08C415.515 112.833 412.575 114.957 409.168 116.45C405.762 117.943 402.028 118.69 397.968 118.69ZM397.968 107C400.768 107 403.358 106.323 405.738 104.97C408.118 103.57 410.032 101.4 411.478 98.46C412.925 95.52 413.648 91.6933 413.648 86.98C413.648 82.92 412.855 79.5833 411.268 76.97C409.682 74.3567 407.628 72.42 405.108 71.16C402.588 69.9 399.952 69.27 397.198 69.27C394.072 69.27 391.435 69.83 389.288 70.95C387.142 72.07 385.415 73.5867 384.108 75.5C382.802 77.3667 381.868 79.4667 381.308 81.8C380.748 84.1333 380.468 86.5367 380.468 89.01C380.468 91.4367 380.935 93.7467 381.868 95.94C382.802 98.0867 384.062 100 385.648 101.68C387.282 103.313 389.148 104.62 391.248 105.6C393.348 106.533 395.588 107 397.968 107ZM434.298 119.11C434.298 111.83 434.391 105.273 434.578 99.44C434.811 93.56 435.091 88.2167 435.418 83.41C435.791 78.5567 436.188 74.0533 436.608 69.9C437.074 65.7 437.518 61.6867 437.938 57.86L449.978 58.35C449.791 59.7967 449.581 61.36 449.348 63.04C450.934 65.1867 452.661 67.6367 454.528 70.39C456.441 73.1433 458.378 76.06 460.338 79.14C462.344 82.1733 464.304 85.23 466.218 88.31C468.131 91.3433 469.951 94.26 471.678 97.06C473.404 99.8133 474.921 102.287 476.228 104.48C476.554 101.26 476.718 96.7333 476.718 90.9C476.718 87.9133 476.671 84.8333 476.578 81.66C476.484 78.4867 476.368 75.4533 476.228 72.56C476.088 69.62 475.901 67.0067 475.668 64.72C475.434 62.3867 475.178 60.5667 474.898 59.26L488.058 57.65C488.151 59.9367 488.198 62.9467 488.198 66.68C488.244 70.3667 488.268 74.2867 488.268 78.44C488.268 82.1267 488.244 85.8367 488.198 89.57C488.151 93.2567 488.058 96.6633 487.918 99.79C487.778 102.917 487.568 105.507 487.288 107.56C486.774 111.573 485.748 114.537 484.208 116.45C482.668 118.363 480.498 119.32 477.698 119.32C475.411 119.32 473.311 118.527 471.398 116.94C469.531 115.353 467.501 112.74 465.308 109.1C463.814 106.58 462.064 103.687 460.058 100.42C458.098 97.1067 456.044 93.7233 453.898 90.27C451.798 86.8167 449.768 83.5267 447.808 80.4C447.434 85.86 447.154 91.32 446.968 96.78C446.781 102.193 446.688 107.093 446.688 111.48C446.688 112.88 446.688 114.187 446.688 115.4C446.688 116.66 446.711 117.827 446.758 118.9L434.298 119.11Z" fill="#140A44"/>
<path d="M0.5 136.5V129.5H51V136.5H0.5Z" fill="#140A44"/>
<path d="M0.5 146.5V139H51.5V146.5L35 147V190.5H27.5V146.5H25V190.5H17.5V146.5H0.5Z" fill="#140A44"/>
<path d="M54.16 190.04C53.74 187.427 53.4367 184.23 53.25 180.45C53.0633 176.67 52.97 172.587 52.97 168.2C52.97 163.673 53.04 159.03 53.18 154.27C53.3667 149.51 53.5767 144.937 53.81 140.55C54.09 136.117 54.3933 132.197 54.72 128.79L66.9 129C66.3867 132.267 65.9667 135.907 65.64 139.92C65.36 143.887 65.1267 148.017 64.94 152.31C68.2533 151.843 71.8467 151.493 75.72 151.26C79.5933 151.027 83.3267 150.91 86.92 150.91C88.6467 150.91 90.3033 150.957 91.89 151.05C91.8433 147.55 91.7733 144.283 91.68 141.25C91.5867 138.217 91.47 135.65 91.33 133.55C91.19 131.45 91.0267 130.003 90.84 129.21L102.88 128.44C103.3 132.36 103.627 137.05 103.86 142.51C104.14 147.97 104.28 153.757 104.28 159.87C104.28 164.817 104.187 169.857 104 174.99C103.813 180.077 103.487 184.977 103.02 189.69H91.33C91.5167 188.197 91.6567 186.167 91.75 183.6C91.8433 180.987 91.9133 178.047 91.96 174.78C92.0067 171.467 92.03 168.013 92.03 164.42C92.03 163.767 92.03 163.09 92.03 162.39C91.1433 162.39 90.2333 162.39 89.3 162.39C88.4133 162.343 87.5033 162.32 86.57 162.32C82.8833 162.32 79.15 162.46 75.37 162.74C71.6367 162.973 68.0667 163.323 64.66 163.79C64.66 165.283 64.66 166.777 64.66 168.27C64.66 172.377 64.6833 176.227 64.73 179.82C64.8233 183.413 64.9633 186.68 65.15 189.62L54.16 190.04ZM122.62 189.97L110.65 187.73C112.89 178.677 115.223 170.487 117.65 163.16C120.123 155.833 122.667 149.557 125.28 144.33C127.893 139.103 130.553 135.09 133.26 132.29C136.013 129.443 138.767 128.02 141.52 128.02C147.073 128.02 152.183 133.177 156.85 143.49C161.517 153.757 165.483 168.643 168.75 188.15L156.36 189.83C155.8 186.75 155.193 183.6 154.54 180.38C153.887 177.113 153.21 173.94 152.51 170.86C151.39 170.813 150.177 170.79 148.87 170.79C146.583 170.79 144.157 170.837 141.59 170.93C139.07 171.023 136.573 171.187 134.1 171.42C131.673 171.607 129.41 171.817 127.31 172.05C126.423 175.037 125.56 178.07 124.72 181.15C123.927 184.183 123.227 187.123 122.62 189.97ZM135.5 149.09C134.473 151.283 133.097 154.83 131.37 159.73C133.377 159.497 135.5 159.333 137.74 159.24C139.98 159.1 142.173 159.03 144.32 159.03C146.14 159.03 147.89 159.077 149.57 159.17C148.917 156.79 148.287 154.667 147.68 152.8C147.12 150.933 146.607 149.463 146.14 148.39C145.16 145.87 144.297 144.097 143.55 143.07C142.803 141.997 142.033 141.46 141.24 141.46C140.4 141.46 139.56 142.02 138.72 143.14C137.88 144.213 136.807 146.197 135.5 149.09ZM194.521 190.18C194.195 186.12 193.961 182.177 193.821 178.35C193.728 174.523 193.681 170.907 193.681 167.5C193.681 161.853 193.798 156.79 194.031 152.31C194.265 147.783 194.498 143.887 194.731 140.62C190.718 140.853 186.821 141.157 183.041 141.53C179.261 141.903 175.761 142.393 172.541 143L172.681 131.31C178.141 130.33 183.741 129.63 189.481 129.21C195.221 128.743 200.961 128.51 206.701 128.51C210.808 128.51 214.728 128.603 218.461 128.79C222.241 128.977 225.858 129.257 229.311 129.63L229.241 141.74C225.975 141.227 222.428 140.877 218.601 140.69C214.821 140.457 210.948 140.34 206.981 140.34C206.748 143.513 206.538 147.06 206.351 150.98C206.165 154.853 206.071 159.007 206.071 163.44C206.071 167.407 206.165 171.583 206.351 175.97C206.585 180.357 206.865 184.977 207.191 189.83L194.521 190.18Z" fill="#140A44"/>
<path d="M350.9 190.69C346.513 190.69 342.523 189.873 338.93 188.24C335.337 186.653 332.233 184.437 329.62 181.59C327.007 178.743 325 175.5 323.6 171.86C322.2 168.22 321.5 164.37 321.5 160.31C321.5 156.577 322.06 152.913 323.18 149.32C324.3 145.68 326.003 142.39 328.29 139.45C330.577 136.463 333.47 134.083 336.97 132.31C340.517 130.537 344.693 129.65 349.5 129.65C354.493 129.65 358.833 130.513 362.52 132.24C366.207 133.92 369.24 136.183 371.62 139.03C374 141.877 375.773 145.097 376.94 148.69C378.107 152.283 378.69 155.97 378.69 159.75C378.69 164.277 378.013 168.43 376.66 172.21C375.307 175.99 373.393 179.28 370.92 182.08C368.447 184.833 365.507 186.957 362.1 188.45C358.693 189.943 354.96 190.69 350.9 190.69ZM350.9 179C353.7 179 356.29 178.323 358.67 176.97C361.05 175.57 362.963 173.4 364.41 170.46C365.857 167.52 366.58 163.693 366.58 158.98C366.58 154.92 365.787 151.583 364.2 148.97C362.613 146.357 360.56 144.42 358.04 143.16C355.52 141.9 352.883 141.27 350.13 141.27C347.003 141.27 344.367 141.83 342.22 142.95C340.073 144.07 338.347 145.587 337.04 147.5C335.733 149.367 334.8 151.467 334.24 153.8C333.68 156.133 333.4 158.537 333.4 161.01C333.4 163.437 333.867 165.747 334.8 167.94C335.733 170.087 336.993 172 338.58 173.68C340.213 175.313 342.08 176.62 344.18 177.6C346.28 178.533 348.52 179 350.9 179ZM390.939 190.83C390.799 187.657 390.729 184.157 390.729 180.33C390.729 176.643 390.799 172.723 390.939 168.57C391.079 164.417 391.289 160.217 391.569 155.97C391.849 151.677 392.223 147.5 392.689 143.44C391.943 143.627 391.219 143.813 390.519 144C389.866 144.14 389.259 144.303 388.699 144.49L385.129 133.36C396.423 130.7 405.826 129.37 413.339 129.37C428.599 129.37 436.229 135.18 436.229 146.8C436.229 152.26 434.409 156.6 430.769 159.82C427.129 162.993 421.786 165 414.739 165.84C418.986 169.433 423.256 172.397 427.549 174.73C431.889 177.017 436.276 178.953 440.709 180.54L433.009 190.83C430.536 189.943 427.946 188.707 425.239 187.12C422.533 185.533 419.849 183.783 417.189 181.87C414.529 179.957 411.986 178.02 409.559 176.06C407.179 174.1 405.056 172.28 403.189 170.6C403.143 173.82 403.096 177.087 403.049 180.4C403.049 183.667 403.049 187.05 403.049 190.55L402.629 190.97C400.856 190.97 398.943 190.97 396.889 190.97C394.883 191.017 393.063 191.11 391.429 191.25L390.939 190.83ZM412.709 140.5C411.403 140.5 410.049 140.57 408.649 140.71C407.249 140.803 405.849 140.943 404.449 141.13C404.263 143.743 404.099 146.333 403.959 148.9C403.819 151.42 403.703 153.94 403.609 156.46C405.663 156.413 407.879 156.297 410.259 156.11C412.686 155.877 414.973 155.457 417.119 154.85C419.266 154.197 421.016 153.263 422.369 152.05C423.769 150.837 424.469 149.227 424.469 147.22C424.469 144.887 423.513 143.183 421.599 142.11C419.686 141.037 416.723 140.5 412.709 140.5ZM447.648 190.97C447.508 186.91 447.438 182.337 447.438 177.25C447.438 172.49 447.508 167.45 447.648 162.13C447.788 156.81 448.021 151.397 448.348 145.89C448.674 140.383 449.071 135.017 449.538 129.79L461.718 130C461.298 133.267 460.924 136.603 460.598 140.01C460.318 143.37 460.084 146.753 459.898 150.16C461.858 148.807 464.214 147.243 466.968 145.47C469.768 143.65 472.754 141.83 475.928 140.01C479.101 138.143 482.274 136.37 485.448 134.69C488.668 133.01 491.678 131.587 494.478 130.42L497.908 142.32C495.061 143.487 492.191 144.77 489.298 146.17C486.451 147.57 483.721 148.97 481.108 150.37C478.541 151.723 476.254 153.03 474.248 154.29C472.241 155.503 470.654 156.577 469.488 157.51C468.321 158.397 467.738 159.05 467.738 159.47C467.738 160.077 468.648 161.103 470.468 162.55C472.288 163.997 474.761 165.7 477.888 167.66C481.014 169.62 484.561 171.673 488.528 173.82C492.541 175.967 496.694 178.067 500.988 180.12L494.478 190.9C489.158 188.147 484.258 185.393 479.778 182.64C475.344 179.84 471.378 177.203 467.878 174.73C464.424 172.257 461.554 170.133 459.268 168.36C459.268 170.087 459.268 171.813 459.268 173.54C459.268 176.667 459.291 179.7 459.338 182.64C459.431 185.533 459.524 188.24 459.618 190.76L447.648 190.97ZM532.255 191.6C528.335 191.6 524.695 191.017 521.335 189.85C517.975 188.683 514.942 187.143 512.235 185.23C509.575 183.27 507.242 181.17 505.235 178.93L512.235 167.8C512.842 169.387 513.845 170.903 515.245 172.35C516.692 173.797 518.372 175.08 520.285 176.2C522.199 177.32 524.205 178.207 526.305 178.86C528.452 179.513 530.552 179.84 532.605 179.84C535.685 179.84 538.135 179.35 539.955 178.37C541.775 177.343 542.685 175.99 542.685 174.31C542.685 173.003 542.265 171.93 541.425 171.09C540.632 170.203 539.699 169.503 538.625 168.99C537.599 168.43 536.712 167.94 535.965 167.52C535.405 167.24 534.379 166.82 532.885 166.26C531.439 165.653 529.805 165 527.985 164.3C526.165 163.6 524.439 162.947 522.805 162.34C521.172 161.687 519.889 161.15 518.955 160.73C512.002 157.603 508.525 152.773 508.525 146.24C508.525 144.14 508.922 142.087 509.715 140.08C510.555 138.027 511.815 136.16 513.495 134.48C515.175 132.8 517.322 131.47 519.935 130.49C522.549 129.51 525.675 129.02 529.315 129.02C533.282 129.02 536.805 129.463 539.885 130.35C542.965 131.19 545.672 132.263 548.005 133.57C550.385 134.877 552.415 136.253 554.095 137.7L547.655 148.48C542.475 143.347 536.619 140.78 530.085 140.78C527.332 140.78 525.232 141.083 523.785 141.69C522.385 142.25 521.429 142.903 520.915 143.65C520.449 144.35 520.215 144.933 520.215 145.4C520.215 146.193 520.495 146.987 521.055 147.78C521.662 148.573 522.992 149.413 525.045 150.3C525.885 150.673 527.005 151.14 528.405 151.7C529.852 152.213 531.439 152.797 533.165 153.45C534.939 154.103 536.665 154.803 538.345 155.55C540.072 156.25 541.635 156.973 543.035 157.72C544.715 158.653 546.442 159.797 548.215 161.15C549.989 162.503 551.482 164.183 552.695 166.19C553.955 168.15 554.585 170.553 554.585 173.4C554.585 175.127 554.259 177.04 553.605 179.14C552.952 181.193 551.809 183.177 550.175 185.09C548.542 187.003 546.279 188.567 543.385 189.78C540.492 190.993 536.782 191.6 532.255 191.6Z" fill="#140A44"/>
<rect x="88" y="202" width="48" height="16" rx="8" fill="#140A44"/>
<rect x="88" y="227" width="41" height="14" rx="7" fill="#140A44"/>
<rect x="88" y="250" width="20" height="14" rx="7" fill="#140A44"/>
<path d="M168.9 264.69C164.513 264.69 160.523 263.873 156.93 262.24C153.337 260.653 150.233 258.437 147.62 255.59C145.007 252.743 143 249.5 141.6 245.86C140.2 242.22 139.5 238.37 139.5 234.31C139.5 230.577 140.06 226.913 141.18 223.32C142.3 219.68 144.003 216.39 146.29 213.45C148.577 210.463 151.47 208.083 154.97 206.31C158.517 204.537 162.693 203.65 167.5 203.65C172.493 203.65 176.833 204.513 180.52 206.24C184.207 207.92 187.24 210.183 189.62 213.03C192 215.877 193.773 219.097 194.94 222.69C196.107 226.283 196.69 229.97 196.69 233.75C196.69 238.277 196.013 242.43 194.66 246.21C193.307 249.99 191.393 253.28 188.92 256.08C186.447 258.833 183.507 260.957 180.1 262.45C176.693 263.943 172.96 264.69 168.9 264.69ZM168.9 253C171.7 253 174.29 252.323 176.67 250.97C179.05 249.57 180.963 247.4 182.41 244.46C183.857 241.52 184.58 237.693 184.58 232.98C184.58 228.92 183.787 225.583 182.2 222.97C180.613 220.357 178.56 218.42 176.04 217.16C173.52 215.9 170.883 215.27 168.13 215.27C165.003 215.27 162.367 215.83 160.22 216.95C158.073 218.07 156.347 219.587 155.04 221.5C153.733 223.367 152.8 225.467 152.24 227.8C151.68 230.133 151.4 232.537 151.4 235.01C151.4 237.437 151.867 239.747 152.8 241.94C153.733 244.087 154.993 246 156.58 247.68C158.213 249.313 160.08 250.62 162.18 251.6C164.28 252.533 166.52 253 168.9 253ZM208.939 264.83C208.799 261.657 208.729 258.157 208.729 254.33C208.729 250.643 208.799 246.723 208.939 242.57C209.079 238.417 209.289 234.217 209.569 229.97C209.849 225.677 210.223 221.5 210.689 217.44C209.943 217.627 209.219 217.813 208.519 218C207.866 218.14 207.259 218.303 206.699 218.49L203.129 207.36C214.423 204.7 223.826 203.37 231.339 203.37C246.599 203.37 254.229 209.18 254.229 220.8C254.229 226.26 252.409 230.6 248.769 233.82C245.129 236.993 239.786 239 232.739 239.84C236.986 243.433 241.256 246.397 245.549 248.73C249.889 251.017 254.276 252.953 258.709 254.54L251.009 264.83C248.536 263.943 245.946 262.707 243.239 261.12C240.533 259.533 237.849 257.783 235.189 255.87C232.529 253.957 229.986 252.02 227.559 250.06C225.179 248.1 223.056 246.28 221.189 244.6C221.143 247.82 221.096 251.087 221.049 254.4C221.049 257.667 221.049 261.05 221.049 264.55L220.629 264.97C218.856 264.97 216.943 264.97 214.889 264.97C212.883 265.017 211.063 265.11 209.429 265.25L208.939 264.83ZM230.709 214.5C229.403 214.5 228.049 214.57 226.649 214.71C225.249 214.803 223.849 214.943 222.449 215.13C222.263 217.743 222.099 220.333 221.959 222.9C221.819 225.42 221.703 227.94 221.609 230.46C223.663 230.413 225.879 230.297 228.259 230.11C230.686 229.877 232.973 229.457 235.119 228.85C237.266 228.197 239.016 227.263 240.369 226.05C241.769 224.837 242.469 223.227 242.469 221.22C242.469 218.887 241.513 217.183 239.599 216.11C237.686 215.037 234.723 214.5 230.709 214.5Z" fill="#140A44"/>
<path d="M300.6 263.55C300.553 262.057 300.507 260.493 300.46 258.86C300.46 257.227 300.46 255.477 300.46 253.61C300.46 251.183 300.483 248.663 300.53 246.05C300.577 243.437 300.67 240.847 300.81 238.28C298.243 236.973 295.77 235.083 293.39 232.61C291.057 230.09 288.84 227.313 286.74 224.28C284.64 221.2 282.75 218.12 281.07 215.04C279.39 211.96 277.967 209.183 276.8 206.71L288.35 202.02C289.143 204.073 290.17 206.29 291.43 208.67C292.69 211.003 294.067 213.313 295.56 215.6C297.053 217.887 298.523 219.963 299.97 221.83C301.463 223.65 302.793 225.12 303.96 226.24C305.173 227.36 306.107 227.92 306.76 227.92C307.46 227.92 308.323 227.43 309.35 226.45C310.423 225.47 311.543 224.187 312.71 222.6C313.923 220.967 315.137 219.193 316.35 217.28C317.61 215.32 318.777 213.36 319.85 211.4C320.97 209.393 321.927 207.55 322.72 205.87C323.56 204.143 324.167 202.743 324.54 201.67L336.3 206.15C334.993 208.67 333.5 211.517 331.82 214.69C330.14 217.817 328.297 220.943 326.29 224.07C324.283 227.197 322.16 230.02 319.92 232.54C317.68 235.06 315.347 236.973 312.92 238.28C312.827 240.613 312.78 243.367 312.78 246.54C312.78 249.667 312.803 252.77 312.85 255.85C312.943 258.93 313.013 261.567 313.06 263.76C312.22 263.76 311.217 263.76 310.05 263.76C308.883 263.807 307.693 263.83 306.48 263.83C305.267 263.877 304.147 263.9 303.12 263.9C302.14 263.947 301.44 263.97 301.02 263.97L300.6 263.55ZM371.91 263.69C367.523 263.69 363.533 262.873 359.94 261.24C356.346 259.653 353.243 257.437 350.63 254.59C348.016 251.743 346.01 248.5 344.61 244.86C343.21 241.22 342.51 237.37 342.51 233.31C342.51 229.577 343.07 225.913 344.19 222.32C345.31 218.68 347.013 215.39 349.3 212.45C351.586 209.463 354.48 207.083 357.98 205.31C361.526 203.537 365.703 202.65 370.51 202.65C375.503 202.65 379.843 203.513 383.53 205.24C387.216 206.92 390.25 209.183 392.63 212.03C395.01 214.877 396.783 218.097 397.95 221.69C399.116 225.283 399.7 228.97 399.7 232.75C399.7 237.277 399.023 241.43 397.67 245.21C396.316 248.99 394.403 252.28 391.93 255.08C389.456 257.833 386.516 259.957 383.11 261.45C379.703 262.943 375.97 263.69 371.91 263.69ZM371.91 252C374.71 252 377.3 251.323 379.68 249.97C382.06 248.57 383.973 246.4 385.42 243.46C386.866 240.52 387.59 236.693 387.59 231.98C387.59 227.92 386.796 224.583 385.21 221.97C383.623 219.357 381.57 217.42 379.05 216.16C376.53 214.9 373.893 214.27 371.14 214.27C368.013 214.27 365.376 214.83 363.23 215.95C361.083 217.07 359.356 218.587 358.05 220.5C356.743 222.367 355.81 224.467 355.25 226.8C354.69 229.133 354.41 231.537 354.41 234.01C354.41 236.437 354.876 238.747 355.81 240.94C356.743 243.087 358.003 245 359.59 246.68C361.223 248.313 363.09 249.62 365.19 250.6C367.29 251.533 369.53 252 371.91 252ZM432.109 264.46C427.629 264.46 423.919 263.737 420.979 262.29C418.039 260.89 415.683 258.953 413.909 256.48C412.183 253.96 410.876 251.067 409.989 247.8C409.149 244.533 408.589 241.033 408.309 237.3C408.076 233.567 407.959 229.787 407.959 225.96C407.959 221.62 408.099 217.397 408.379 213.29C408.659 209.137 408.963 205.66 409.289 202.86L422.169 203.63C421.703 207.037 421.329 210.093 421.049 212.8C420.816 215.46 420.653 217.98 420.559 220.36C420.466 222.74 420.419 225.19 420.419 227.71C420.419 229.67 420.443 231.793 420.489 234.08C420.583 236.32 420.793 238.56 421.119 240.8C421.493 242.993 422.053 245 422.799 246.82C423.593 248.593 424.689 250.04 426.089 251.16C427.536 252.233 429.379 252.77 431.619 252.77C434.046 252.77 436.006 252.233 437.499 251.16C439.039 250.04 440.229 248.57 441.069 246.75C441.909 244.883 442.516 242.83 442.889 240.59C443.263 238.303 443.473 235.993 443.519 233.66C443.613 231.28 443.659 229.04 443.659 226.94C443.659 222.973 443.543 219.123 443.309 215.39C443.076 211.657 442.773 207.69 442.399 203.49L455.279 202.51C455.653 206.99 455.933 211.097 456.119 214.83C456.306 218.517 456.399 221.923 456.399 225.05C456.399 229.297 456.236 233.38 455.909 237.3C455.629 241.22 455.023 244.837 454.089 248.15C453.156 251.417 451.803 254.287 450.029 256.76C448.256 259.187 445.899 261.077 442.959 262.43C440.066 263.783 436.449 264.46 432.109 264.46Z" fill="#140A44"/>
</svg>
