<svg width="66" height="66" viewBox="0 0 66 66" fill="none" xmlns="http://www.w3.org/2000/svg">
<mask id="path-1-outside-1_3_45" maskUnits="userSpaceOnUse" x="3.05176e-05" y="0.000610352" width="66" height="66" fill="black">
<rect fill="white" x="3.05176e-05" y="0.000610352" width="66" height="66"/>
<path d="M8.00003 65.0006H7.00003V63.0006V61.0006H8.00003H9.00002V63.0006V65.0006H8.00003ZM24 65.0006H23V63.0006V61.0006H24H25V63.0006V65.0006H24ZM40 65.0006H39V63.0006V61.0006H40H41V63.0006V65.0006H40ZM56 65.0006H55V63.0006V61.0006H56H57V63.0006V65.0006H56ZM16 63.0006H15V58.0006V53.0006H16H17V58.0006V63.0006H16ZM32 63.0006H31V58.0006V53.0006H32H33V58.0006V63.0006H32ZM48 63.0006H47V58.0006V53.0006H48H49V58.0006V63.0006H48ZM64 63.0006H63V58.0006V53.0006H64H65V58.0006V63.0006H64ZM8.00003 59.0006H3.00003V58.0006V57.0006H8.00003H13V58.0006V59.0006H8.00003ZM24 59.0006H19V58.0006V57.0006H24H29V58.0006V59.0006H24ZM40 59.0006H35V58.0006V57.0006H40H45V58.0006V59.0006H40ZM56 59.0006H51V58.0006V57.0006H56H61V58.0006V59.0006H56ZM8.00003 55.0006H7.00003V50.0006V45.0006H8.00003H9.00002V50.0006V55.0006H8.00003ZM24 55.0006H23V50.0006V45.0006H24H25V50.0006V55.0006H24ZM40 55.0006H39V50.0006V45.0006H40H41V50.0006V55.0006H40ZM56 55.0006H55V50.0006V45.0006H56H57V50.0006V55.0006H56ZM3.00003 51.0006H1.00003V50.0006V49.0006H3.00003H5.00003V50.0006V51.0006H3.00003ZM16 51.0006H11V50.0006V49.0006H16H21V50.0006V51.0006H16ZM32 51.0006H27V50.0006V49.0006H32H37V50.0006V51.0006H32ZM48 51.0006H43V50.0006V49.0006H48H53V50.0006V51.0006H48ZM62 51.0006H59V50.0006V49.0006H62H65V50.0006V51.0006H62ZM16 47.0006H15V42.0005V37.0006H16H17V42.0005V47.0006H16ZM32 47.0006H31V42.0005V37.0006H32H33V42.0005V47.0006H32ZM48 47.0006H47V42.0005V37.0006H48H49V42.0005V47.0006H48ZM64 47.0006H63V42.0005V37.0006H64H65V42.0005V47.0006H64ZM8.00003 43.0006H3.00003V42.0006V41.0006H8.00003H13V42.0006V43.0006H8.00003ZM24 43.0006H19V42.0006V41.0006H24H29V42.0006V43.0006H24ZM40 43.0006H35V42.0006V41.0006H40H45V42.0006V43.0006H40ZM56 43.0006H51V42.0006V41.0006H56H61V42.0006V43.0006H56ZM8.00003 39.0006H7.00003V34.0005V29.0006H8.00003H9.00002V34.0005V39.0006H8.00003ZM24 39.0006H23V34.0005V29.0006H24H25V34.0005V39.0006H24ZM40 39.0006H39V34.0005V29.0006H40H41V34.0005V39.0006H40ZM56 39.0006H55V34.0005V29.0006H56H57V34.0005V39.0006H56ZM3.00003 35.0006H1.00003V34.0006V33.0006H3.00003H5.00003V34.0006V35.0006H3.00003ZM16 35.0006H11V34.0006V33.0006H16H21V34.0006V35.0006H16ZM32 35.0006H27V34.0006V33.0006H32H37V34.0006V35.0006H32ZM48 35.0006H43V34.0006V33.0006H48H53V34.0006V35.0006H48ZM62 35.0006H59V34.0006V33.0006H62H65V34.0006V35.0006H62ZM16 31.0006H15V26.0006V21.0005H16H17V26.0006V31.0006H16ZM32 31.0006H31V26.0006V21.0005H32H33V26.0006V31.0006H32ZM48 31.0006H47V26.0006V21.0005H48H49V26.0006V31.0006H48ZM64 31.0006H63V26.0006V21.0005H64H65V26.0006V31.0006H64ZM8.00003 27.0006H3.00003V26.0006V25.0006H8.00003H13V26.0006V27.0006H8.00003ZM24 27.0006H19V26.0006V25.0006H24H29V26.0006V27.0006H24ZM40 27.0006H35V26.0006V25.0006H40H45V26.0006V27.0006H40ZM56 27.0006H51V26.0006V25.0006H56H61V26.0006V27.0006H56ZM8.00003 23.0006H7.00003V18.0006V13.0006H8.00003H9.00002V18.0006V23.0006H8.00003ZM24 23.0006H23V18.0006V13.0006H24H25V18.0006V23.0006H24ZM40 23.0006H39V18.0006V13.0006H40H41V18.0006V23.0006H40ZM56 23.0006H55V18.0006V13.0006H56H57V18.0006V23.0006H56ZM3.00003 19.0006H1.00003V18.0006V17.0006H3.00003H5.00003V18.0006V19.0006H3.00003ZM16 19.0006H11V18.0006V17.0006H16H21V18.0006V19.0006H16ZM32 19.0006H27V18.0006V17.0006H32H37V18.0006V19.0006H32ZM48 19.0006H43V18.0006V17.0006H48H53V18.0006V19.0006H48ZM62 19.0006H59V18.0006V17.0006H62H65V18.0006V19.0006H62ZM16 15.0006H15V10.0006V5.00056H16H17V10.0006V15.0006H16ZM32 15.0006H31V10.0006V5.00056H32H33V10.0006V15.0006H32ZM48 15.0006H47V10.0006V5.00056H48H49V10.0006V15.0006H48ZM64 15.0006H63V10.0006V5.00056H64H65V10.0006V15.0006H64ZM8.00003 11.0006H3.00003V10.0006V9.00059H8.00003H13V10.0006V11.0006H8.00003ZM24 11.0006H19V10.0006V9.00059H24H29V10.0006V11.0006H24ZM40 11.0006H35V10.0006V9.00059H40H45V10.0006V11.0006H40ZM56 11.0006H51V10.0006V9.00059H56H61V10.0006V11.0006H56ZM8.00003 7.00059H7.00003V4.00063V1.00061H8.00003H9.00002V4.00063V7.00059H8.00003ZM24 7.00059H23V4.00063V1.00061H24H25V4.00063V7.00059H24ZM40 7.00059H39V4.00063V1.00061H40H41V4.00063V7.00059H40ZM56 7.00059H55V4.00063V1.00061H56H57V4.00063V7.00059H56ZM3.00003 3.00058H1.00003V2.0006V1.00061H3.00003H5.00003V2.0006V3.00058H3.00003ZM16 3.00058H11V2.0006V1.00061H16H21V2.0006V3.00058H16ZM32 3.00058H27V2.0006V1.00061H32H37V2.0006V3.00058H32ZM48 3.00058H43V2.0006V1.00061H48H53V2.0006V3.00058H48ZM62 3.00058H59V2.0006V1.00061H62H65V2.0006V3.00058H62Z"/>
</mask>
<path d="M8.00003 65.0006H7.00003V63.0006V61.0006H8.00003H9.00002V63.0006V65.0006H8.00003ZM24 65.0006H23V63.0006V61.0006H24H25V63.0006V65.0006H24ZM40 65.0006H39V63.0006V61.0006H40H41V63.0006V65.0006H40ZM56 65.0006H55V63.0006V61.0006H56H57V63.0006V65.0006H56ZM16 63.0006H15V58.0006V53.0006H16H17V58.0006V63.0006H16ZM32 63.0006H31V58.0006V53.0006H32H33V58.0006V63.0006H32ZM48 63.0006H47V58.0006V53.0006H48H49V58.0006V63.0006H48ZM64 63.0006H63V58.0006V53.0006H64H65V58.0006V63.0006H64ZM8.00003 59.0006H3.00003V58.0006V57.0006H8.00003H13V58.0006V59.0006H8.00003ZM24 59.0006H19V58.0006V57.0006H24H29V58.0006V59.0006H24ZM40 59.0006H35V58.0006V57.0006H40H45V58.0006V59.0006H40ZM56 59.0006H51V58.0006V57.0006H56H61V58.0006V59.0006H56ZM8.00003 55.0006H7.00003V50.0006V45.0006H8.00003H9.00002V50.0006V55.0006H8.00003ZM24 55.0006H23V50.0006V45.0006H24H25V50.0006V55.0006H24ZM40 55.0006H39V50.0006V45.0006H40H41V50.0006V55.0006H40ZM56 55.0006H55V50.0006V45.0006H56H57V50.0006V55.0006H56ZM3.00003 51.0006H1.00003V50.0006V49.0006H3.00003H5.00003V50.0006V51.0006H3.00003ZM16 51.0006H11V50.0006V49.0006H16H21V50.0006V51.0006H16ZM32 51.0006H27V50.0006V49.0006H32H37V50.0006V51.0006H32ZM48 51.0006H43V50.0006V49.0006H48H53V50.0006V51.0006H48ZM62 51.0006H59V50.0006V49.0006H62H65V50.0006V51.0006H62ZM16 47.0006H15V42.0005V37.0006H16H17V42.0005V47.0006H16ZM32 47.0006H31V42.0005V37.0006H32H33V42.0005V47.0006H32ZM48 47.0006H47V42.0005V37.0006H48H49V42.0005V47.0006H48ZM64 47.0006H63V42.0005V37.0006H64H65V42.0005V47.0006H64ZM8.00003 43.0006H3.00003V42.0006V41.0006H8.00003H13V42.0006V43.0006H8.00003ZM24 43.0006H19V42.0006V41.0006H24H29V42.0006V43.0006H24ZM40 43.0006H35V42.0006V41.0006H40H45V42.0006V43.0006H40ZM56 43.0006H51V42.0006V41.0006H56H61V42.0006V43.0006H56ZM8.00003 39.0006H7.00003V34.0005V29.0006H8.00003H9.00002V34.0005V39.0006H8.00003ZM24 39.0006H23V34.0005V29.0006H24H25V34.0005V39.0006H24ZM40 39.0006H39V34.0005V29.0006H40H41V34.0005V39.0006H40ZM56 39.0006H55V34.0005V29.0006H56H57V34.0005V39.0006H56ZM3.00003 35.0006H1.00003V34.0006V33.0006H3.00003H5.00003V34.0006V35.0006H3.00003ZM16 35.0006H11V34.0006V33.0006H16H21V34.0006V35.0006H16ZM32 35.0006H27V34.0006V33.0006H32H37V34.0006V35.0006H32ZM48 35.0006H43V34.0006V33.0006H48H53V34.0006V35.0006H48ZM62 35.0006H59V34.0006V33.0006H62H65V34.0006V35.0006H62ZM16 31.0006H15V26.0006V21.0005H16H17V26.0006V31.0006H16ZM32 31.0006H31V26.0006V21.0005H32H33V26.0006V31.0006H32ZM48 31.0006H47V26.0006V21.0005H48H49V26.0006V31.0006H48ZM64 31.0006H63V26.0006V21.0005H64H65V26.0006V31.0006H64ZM8.00003 27.0006H3.00003V26.0006V25.0006H8.00003H13V26.0006V27.0006H8.00003ZM24 27.0006H19V26.0006V25.0006H24H29V26.0006V27.0006H24ZM40 27.0006H35V26.0006V25.0006H40H45V26.0006V27.0006H40ZM56 27.0006H51V26.0006V25.0006H56H61V26.0006V27.0006H56ZM8.00003 23.0006H7.00003V18.0006V13.0006H8.00003H9.00002V18.0006V23.0006H8.00003ZM24 23.0006H23V18.0006V13.0006H24H25V18.0006V23.0006H24ZM40 23.0006H39V18.0006V13.0006H40H41V18.0006V23.0006H40ZM56 23.0006H55V18.0006V13.0006H56H57V18.0006V23.0006H56ZM3.00003 19.0006H1.00003V18.0006V17.0006H3.00003H5.00003V18.0006V19.0006H3.00003ZM16 19.0006H11V18.0006V17.0006H16H21V18.0006V19.0006H16ZM32 19.0006H27V18.0006V17.0006H32H37V18.0006V19.0006H32ZM48 19.0006H43V18.0006V17.0006H48H53V18.0006V19.0006H48ZM62 19.0006H59V18.0006V17.0006H62H65V18.0006V19.0006H62ZM16 15.0006H15V10.0006V5.00056H16H17V10.0006V15.0006H16ZM32 15.0006H31V10.0006V5.00056H32H33V10.0006V15.0006H32ZM48 15.0006H47V10.0006V5.00056H48H49V10.0006V15.0006H48ZM64 15.0006H63V10.0006V5.00056H64H65V10.0006V15.0006H64ZM8.00003 11.0006H3.00003V10.0006V9.00059H8.00003H13V10.0006V11.0006H8.00003ZM24 11.0006H19V10.0006V9.00059H24H29V10.0006V11.0006H24ZM40 11.0006H35V10.0006V9.00059H40H45V10.0006V11.0006H40ZM56 11.0006H51V10.0006V9.00059H56H61V10.0006V11.0006H56ZM8.00003 7.00059H7.00003V4.00063V1.00061H8.00003H9.00002V4.00063V7.00059H8.00003ZM24 7.00059H23V4.00063V1.00061H24H25V4.00063V7.00059H24ZM40 7.00059H39V4.00063V1.00061H40H41V4.00063V7.00059H40ZM56 7.00059H55V4.00063V1.00061H56H57V4.00063V7.00059H56ZM3.00003 3.00058H1.00003V2.0006V1.00061H3.00003H5.00003V2.0006V3.00058H3.00003ZM16 3.00058H11V2.0006V1.00061H16H21V2.0006V3.00058H16ZM32 3.00058H27V2.0006V1.00061H32H37V2.0006V3.00058H32ZM48 3.00058H43V2.0006V1.00061H48H53V2.0006V3.00058H48ZM62 3.00058H59V2.0006V1.00061H62H65V2.0006V3.00058H62Z" fill="white"/>
<path d="M8.00003 65.0006H7.00003V63.0006V61.0006H8.00003H9.00002V63.0006V65.0006H8.00003ZM24 65.0006H23V63.0006V61.0006H24H25V63.0006V65.0006H24ZM40 65.0006H39V63.0006V61.0006H40H41V63.0006V65.0006H40ZM56 65.0006H55V63.0006V61.0006H56H57V63.0006V65.0006H56ZM16 63.0006H15V58.0006V53.0006H16H17V58.0006V63.0006H16ZM32 63.0006H31V58.0006V53.0006H32H33V58.0006V63.0006H32ZM48 63.0006H47V58.0006V53.0006H48H49V58.0006V63.0006H48ZM64 63.0006H63V58.0006V53.0006H64H65V58.0006V63.0006H64ZM8.00003 59.0006H3.00003V58.0006V57.0006H8.00003H13V58.0006V59.0006H8.00003ZM24 59.0006H19V58.0006V57.0006H24H29V58.0006V59.0006H24ZM40 59.0006H35V58.0006V57.0006H40H45V58.0006V59.0006H40ZM56 59.0006H51V58.0006V57.0006H56H61V58.0006V59.0006H56ZM8.00003 55.0006H7.00003V50.0006V45.0006H8.00003H9.00002V50.0006V55.0006H8.00003ZM24 55.0006H23V50.0006V45.0006H24H25V50.0006V55.0006H24ZM40 55.0006H39V50.0006V45.0006H40H41V50.0006V55.0006H40ZM56 55.0006H55V50.0006V45.0006H56H57V50.0006V55.0006H56ZM3.00003 51.0006H1.00003V50.0006V49.0006H3.00003H5.00003V50.0006V51.0006H3.00003ZM16 51.0006H11V50.0006V49.0006H16H21V50.0006V51.0006H16ZM32 51.0006H27V50.0006V49.0006H32H37V50.0006V51.0006H32ZM48 51.0006H43V50.0006V49.0006H48H53V50.0006V51.0006H48ZM62 51.0006H59V50.0006V49.0006H62H65V50.0006V51.0006H62ZM16 47.0006H15V42.0005V37.0006H16H17V42.0005V47.0006H16ZM32 47.0006H31V42.0005V37.0006H32H33V42.0005V47.0006H32ZM48 47.0006H47V42.0005V37.0006H48H49V42.0005V47.0006H48ZM64 47.0006H63V42.0005V37.0006H64H65V42.0005V47.0006H64ZM8.00003 43.0006H3.00003V42.0006V41.0006H8.00003H13V42.0006V43.0006H8.00003ZM24 43.0006H19V42.0006V41.0006H24H29V42.0006V43.0006H24ZM40 43.0006H35V42.0006V41.0006H40H45V42.0006V43.0006H40ZM56 43.0006H51V42.0006V41.0006H56H61V42.0006V43.0006H56ZM8.00003 39.0006H7.00003V34.0005V29.0006H8.00003H9.00002V34.0005V39.0006H8.00003ZM24 39.0006H23V34.0005V29.0006H24H25V34.0005V39.0006H24ZM40 39.0006H39V34.0005V29.0006H40H41V34.0005V39.0006H40ZM56 39.0006H55V34.0005V29.0006H56H57V34.0005V39.0006H56ZM3.00003 35.0006H1.00003V34.0006V33.0006H3.00003H5.00003V34.0006V35.0006H3.00003ZM16 35.0006H11V34.0006V33.0006H16H21V34.0006V35.0006H16ZM32 35.0006H27V34.0006V33.0006H32H37V34.0006V35.0006H32ZM48 35.0006H43V34.0006V33.0006H48H53V34.0006V35.0006H48ZM62 35.0006H59V34.0006V33.0006H62H65V34.0006V35.0006H62ZM16 31.0006H15V26.0006V21.0005H16H17V26.0006V31.0006H16ZM32 31.0006H31V26.0006V21.0005H32H33V26.0006V31.0006H32ZM48 31.0006H47V26.0006V21.0005H48H49V26.0006V31.0006H48ZM64 31.0006H63V26.0006V21.0005H64H65V26.0006V31.0006H64ZM8.00003 27.0006H3.00003V26.0006V25.0006H8.00003H13V26.0006V27.0006H8.00003ZM24 27.0006H19V26.0006V25.0006H24H29V26.0006V27.0006H24ZM40 27.0006H35V26.0006V25.0006H40H45V26.0006V27.0006H40ZM56 27.0006H51V26.0006V25.0006H56H61V26.0006V27.0006H56ZM8.00003 23.0006H7.00003V18.0006V13.0006H8.00003H9.00002V18.0006V23.0006H8.00003ZM24 23.0006H23V18.0006V13.0006H24H25V18.0006V23.0006H24ZM40 23.0006H39V18.0006V13.0006H40H41V18.0006V23.0006H40ZM56 23.0006H55V18.0006V13.0006H56H57V18.0006V23.0006H56ZM3.00003 19.0006H1.00003V18.0006V17.0006H3.00003H5.00003V18.0006V19.0006H3.00003ZM16 19.0006H11V18.0006V17.0006H16H21V18.0006V19.0006H16ZM32 19.0006H27V18.0006V17.0006H32H37V18.0006V19.0006H32ZM48 19.0006H43V18.0006V17.0006H48H53V18.0006V19.0006H48ZM62 19.0006H59V18.0006V17.0006H62H65V18.0006V19.0006H62ZM16 15.0006H15V10.0006V5.00056H16H17V10.0006V15.0006H16ZM32 15.0006H31V10.0006V5.00056H32H33V10.0006V15.0006H32ZM48 15.0006H47V10.0006V5.00056H48H49V10.0006V15.0006H48ZM64 15.0006H63V10.0006V5.00056H64H65V10.0006V15.0006H64ZM8.00003 11.0006H3.00003V10.0006V9.00059H8.00003H13V10.0006V11.0006H8.00003ZM24 11.0006H19V10.0006V9.00059H24H29V10.0006V11.0006H24ZM40 11.0006H35V10.0006V9.00059H40H45V10.0006V11.0006H40ZM56 11.0006H51V10.0006V9.00059H56H61V10.0006V11.0006H56ZM8.00003 7.00059H7.00003V4.00063V1.00061H8.00003H9.00002V4.00063V7.00059H8.00003ZM24 7.00059H23V4.00063V1.00061H24H25V4.00063V7.00059H24ZM40 7.00059H39V4.00063V1.00061H40H41V4.00063V7.00059H40ZM56 7.00059H55V4.00063V1.00061H56H57V4.00063V7.00059H56ZM3.00003 3.00058H1.00003V2.0006V1.00061H3.00003H5.00003V2.0006V3.00058H3.00003ZM16 3.00058H11V2.0006V1.00061H16H21V2.0006V3.00058H16ZM32 3.00058H27V2.0006V1.00061H32H37V2.0006V3.00058H32ZM48 3.00058H43V2.0006V1.00061H48H53V2.0006V3.00058H48ZM62 3.00058H59V2.0006V1.00061H62H65V2.0006V3.00058H62Z" stroke="black" stroke-width="2" mask="url(#path-1-outside-1_3_45)"/>
</svg>
