<svg width="718" height="486" viewBox="0 0 718 486" fill="none" xmlns="http://www.w3.org/2000/svg">
<path d="M78.5311 478.406V470.812H98.1639H117.797V465.117V459.422H137.43H157.063V451.828V444.234H187.914H218.766V438.539V432.844H238.399H258.032V425.25V417.656H269.25H280.469V425.25V432.844H269.25H258.032V438.539V444.234H238.399H218.766V451.828V459.422H187.914H157.063V465.117V470.812H137.43H117.797V478.406V486H98.1639H78.5311V478.406ZM39.2656 438.539V432.844H58.8984H78.5311V425.25V417.656H98.1639H117.797V411.961V406.266H148.649H179.5V398.672V391.078H199.133H218.766V385.383V379.688H229.985H241.203V385.383V391.078H229.985H218.766V398.672V406.266H199.133H179.5V411.961V417.656H148.649H117.797V425.25V432.844H98.1639H78.5311V438.539V444.234H58.8984H39.2656V438.539ZM577.766 411.961V406.266H597.399H617.031V398.672V391.078H628.25H639.469V385.383V379.688H659.102H678.735V372.094V364.5H687.149H695.562V356.906V349.312H706.781H718V356.906V364.5H706.781H695.562V372.094V379.688H687.149H678.735V385.383V391.078H659.102H639.469V398.672V406.266H628.25H617.031V411.961V417.656H597.399H577.766V411.961ZM381.438 385.383V379.688H370.219H359V372.094V364.5H347.781H336.563V356.906V349.312H328.148H319.734V343.617V337.922H308.516H297.297V330.328V322.734H288.883H280.469V317.039V311.344H288.883H297.297V317.039V322.734H308.516H319.734V330.328V337.922H328.148H336.563V343.617V349.312H347.781H359V356.906V364.5H370.219H381.438V372.094V379.688H389.852H398.265V385.383V391.078H389.852H381.438V385.383ZM538.5 385.383V379.688H558.133H577.766V372.094V364.5H588.984H600.203V356.906V349.312H619.836H639.469V343.617V337.922H647.883H656.297V330.328V322.734H667.516H678.735V330.328V337.922H667.516H656.297V343.617V349.312H647.883H639.469V356.906V364.5H619.836H600.203V372.094V379.688H588.984H577.766V385.383V391.078H558.133H538.5V385.383ZM420.703 356.906V349.312H409.484H398.265V343.617V337.922H389.852H381.438V330.328V322.734H370.219H359V317.039V311.344H347.781H336.563V303.75V296.156H328.148H319.734V290.461V284.766H328.148H336.563V290.461V296.156H347.781H359V303.75V311.344H370.219H381.438V317.039V322.734H389.852H398.265V330.328V337.922H409.484H420.703V343.617V349.312H429.117H437.531V356.906V364.5H429.117H420.703V356.906ZM538.5 271.476V258.187H527.281H516.063V243V227.813H507.648H499.234V208.828V189.844H488.016H476.797V182.25V174.656H488.016H499.234V182.25V189.844H507.648H516.063V208.828V227.813H527.281H538.5V243V258.187H549.719H560.937V271.476V284.766H549.719H538.5V271.476ZM600.203 256.289V243H588.984H577.766V229.711V216.422H569.352H560.937V195.539V174.656H549.719H538.5V168.961V163.266H549.719H560.937V168.961V174.656H569.352H577.766V195.539V216.422H588.984H600.203V229.711V243H608.617H617.031V256.289V269.578H608.617H600.203V256.289ZM157.063 250.594V243H179.5H201.938V235.406V227.813H221.57H241.203V222.117V216.422H260.836H280.469V208.828V201.234H288.883H297.297V208.828V216.422H288.883H280.469V222.117V227.813H260.836H241.203V235.406V243H221.57H201.938V250.594V258.187H179.5H157.063V250.594ZM140.234 208.828V201.234H159.867H179.5V195.539V189.844H199.133H218.766V182.25V174.656H238.399H258.032V168.961V163.266H269.25H280.469V168.961V174.656H269.25H258.032V182.25V189.844H238.399H218.766V195.539V201.234H199.133H179.5V208.828V216.422H159.867H140.234V208.828ZM39.2656 142.383V136.688H50.4842H61.7032V129.094V121.5H70.117H78.5311V113.906V106.313H89.7497H100.969V100.617V94.9218H109.383H117.797V87.3282V79.7342H129.016H140.234V74.0391V68.3438H148.649H157.063V74.0391V79.7342H148.649H140.234V87.3282V94.9218H129.016H117.797V100.617V106.313H109.383H100.969V113.906V121.5H89.7497H78.5311V129.094V136.688H70.117H61.7032V142.383V148.078H50.4842H39.2656V142.383ZM0 113.906V106.313H11.2186H22.4372V100.617V94.9218H30.8514H39.2656V87.3282V79.7342H50.4842H61.7032V74.0391V68.3438H70.117H78.5311V60.7498V53.1562H89.7497H100.969V47.4608V41.7657H109.383H117.797V47.4608V53.1562H109.383H100.969V60.7498V68.3438H89.7497H78.5311V74.0391V79.7342H70.117H61.7032V87.3282V94.9218H50.4842H39.2656V100.617V106.313H30.8514H22.4372V113.906V121.5H11.2186H0V113.906ZM297.297 108.211V94.9218H308.516H319.734V81.6328V68.3438H328.148H336.563V55.0547V41.7657H347.781H359V34.1717V26.5781H370.219H381.438V34.1717V41.7657H370.219H359V55.0547V68.3438H347.781H336.563V81.6328V94.9218H328.148H319.734V108.211V121.5H308.516H297.297V108.211ZM560.937 100.617V94.9218H530.086H499.234V87.3282V79.7342H530.086H560.937V87.3282V94.9218H600.203H639.469V100.617V106.313H600.203H560.937V100.617ZM258.032 81.6328V68.3438H269.25H280.469V55.0547V41.7657H288.883H297.297V28.4766V15.1876H308.516H319.734V7.59366V0H328.148H336.563V7.59366V15.1876H328.148H319.734V28.4766V41.7657H308.516H297.297V55.0547V68.3438H288.883H280.469V81.6328V94.9218H269.25H258.032V81.6328ZM577.766 60.7498V53.1562H546.914H516.063V47.4608V41.7657H546.914H577.766V47.4608V53.1562H617.031H656.297V60.7498V68.3438H617.031H577.766V60.7498Z" fill="white"/>
</svg>
